<svg xmlns="http://www.w3.org/2000/svg" version="1.0" width="714.000000pt" height="360.000000pt" viewBox="0 0 714.000000 360.000000" preserveAspectRatio="xMidYMid meet">
<g transform="translate(0.000000,360.000000) scale(0.100000,-0.100000)" fill="#e61717" stroke="none">
<path d="M2180 3577 c-20 -14 -48 -42 -62 -63 -31 -46 -98 -173 -98 -186 0 -5 -10 -30 -21 -56 -26 -56 -83 -360 -105 -554 -10 -91 -17 -265 -20 -478 l-4 -335 -91 -175 c-98 -189 -146 -270 -160 -270 -5 0 -9 21 -9 48 0 119 31 692 40 732 9 42 15 111 11 136 -2 21 -139 124 -155 118 -9 -3 -23 -32 -32 -63 -9 -31 -19 -59 -23 -62 -3 -4 -30 -1 -59 7 -46 12 -58 12 -100 -2 -78 -27 -99 -41 -152 -105 -143 -172 -225 -481 -186 -698 17 -95 46 -136 102 -147 60 -11 94 4 160 75 86 90 137 161 184 256 l40 80 -5 -50 c-14 -146 -15 -199 -5 -293 12 -116 18 -136 62 -204 23 -35 38 -48 55 -48 37 0 125 45 160 82 34 37 73 108 73 135 0 10 7 32 16 48 9 17 34 64 55 105 34 67 39 72 39 43 1 -122 85 -326 167 -404 49 -48 157 -99 207 -99 64 0 222 199 241 303 4 21 20 77 35 124 l28 86 36 -51 c24 -32 57 -62 93 -82 51 -29 60 -31 117 -25 91 10 151 40 249 123 l88 74 -6 -45 c-6 -40 -4 -46 20 -66 15 -11 33 -21 40 -21 6 0 22 -11 35 -25 62 -66 165 -5 215 128 26 70 64 197 85 287 6 24 15 50 21 56 5 7 29 70 53 140 24 71 47 137 51 146 14 34 25 6 25 -60 0 -37 4 -103 10 -147 5 -44 16 -159 25 -255 37 -430 59 -500 165 -530 29 -8 41 -5 87 21 58 33 70 53 77 125 3 25 13 68 22 97 l17 52 12 -50 c7 -27 19 -66 27 -85 19 -44 100 -171 119 -186 17 -13 86 -37 151 -53 102 -24 208 27 291 139 27 36 57 76 68 90 10 13 19 31 19 38 0 8 12 41 27 74 l27 60 20 -43 c25 -54 84 -114 122 -123 16 -4 55 -2 88 6 64 14 82 31 128 119 23 42 25 44 34 25 5 -12 24 -29 43 -38 18 -9 43 -26 55 -37 38 -36 89 -28 141 20 25 23 45 47 45 53 0 6 12 38 26 71 23 56 65 194 83 275 4 19 17 53 28 75 11 22 37 92 58 155 20 63 39 119 42 124 11 17 22 -27 22 -89 1 -33 8 -120 16 -193 8 -73 22 -210 30 -305 8 -95 20 -188 25 -207 6 -19 10 -47 10 -63 0 -37 34 -103 64 -122 55 -36 85 -37 143 -4 58 33 71 54 77 123 2 22 5 48 5 56 1 8 11 -2 22 -22 35 -68 116 -88 179 -46 29 20 100 98 185 205 14 17 41 64 59 104 l34 73 -6 -152 c-7 -220 10 -313 76 -400 30 -39 48 -40 121 -6 90 42 124 85 157 196 8 27 30 74 49 106 19 31 35 60 35 64 0 5 19 52 43 105 41 92 43 103 41 178 -3 100 -2 95 -13 95 -10 0 -53 -77 -181 -325 -46 -88 -95 -175 -109 -194 l-26 -34 -5 34 c-8 47 27 733 39 789 20 87 17 94 -60 159 -83 69 -101 69 -119 -2 -20 -77 -18 -76 -75 -61 -58 15 -90 11 -163 -24 -64 -30 -136 -117 -192 -233 -21 -44 -44 -86 -50 -93 -5 -8 -29 -74 -51 -147 -96 -314 -90 -300 -94 -219 -1 19 -4 78 -8 130 -4 52 -9 169 -12 260 -9 274 -16 373 -32 412 -10 25 -35 53 -75 83 -131 98 -202 40 -268 -220 -16 -63 -52 -174 -80 -247 -28 -73 -65 -176 -83 -228 l-32 -94 -6 39 c-8 45 -6 306 6 690 9 322 16 308 -155 341 -14 3 -33 -1 -43 -8 -16 -12 -20 -37 -29 -179 -5 -90 -7 -186 -4 -214 3 -27 8 -151 11 -275 l6 -225 -83 -157 c-46 -87 -86 -158 -89 -158 -12 0 -39 85 -48 154 -7 45 -6 107 1 185 6 64 12 172 14 241 2 69 6 161 10 205 8 96 4 101 -82 110 -55 7 -63 5 -89 -17 -21 -19 -30 -38 -36 -79 -14 -89 -29 -279 -29 -364 0 -65 -8 -106 -41 -215 -23 -74 -52 -173 -66 -220 -18 -58 -42 -109 -77 -160 -28 -41 -52 -76 -53 -78 0 -2 -12 -5 -25 -7 -12 -1 -30 -6 -39 -9 -27 -11 -103 70 -128 137 -11 32 -21 68 -21 81 0 13 -7 41 -17 62 -13 32 -16 76 -16 249 0 232 11 454 24 471 5 6 13 96 19 200 5 104 12 199 15 210 4 19 14 22 92 29 143 11 299 74 341 137 20 31 29 68 17 68 -3 0 -42 -18 -86 -40 -154 -78 -325 -121 -345 -88 -4 6 -8 54 -8 106 l-1 95 -42 37 c-35 31 -50 37 -87 38 -25 0 -48 -4 -52 -9 -3 -5 -14 -5 -25 2 -17 8 -23 7 -35 -8 -18 -24 -23 -43 -32 -133 l-7 -75 -128 3 c-130 3 -162 -4 -151 -33 8 -20 57 -33 159 -40 135 -9 129 -5 122 -89 -3 -39 -13 -141 -22 -226 -9 -85 -17 -263 -19 -395 l-2 -240 -52 -155 c-28 -85 -52 -148 -52 -140 -6 54 -20 339 -30 588 -10 261 -14 278 -82 333 -61 50 -79 58 -121 59 -27 0 -45 -7 -62 -24 -36 -36 -79 -137 -105 -246 -12 -52 -50 -169 -85 -260 -34 -91 -73 -195 -85 -232 -13 -37 -25 -66 -27 -65 -12 13 -12 320 1 604 20 414 19 417 -84 443 -80 21 -95 21 -114 7 -16 -11 -19 -36 -28 -183 -5 -93 -7 -189 -4 -214 3 -25 8 -147 11 -272 l6 -226 -30 -59 c-50 -99 -106 -162 -170 -190 -31 -13 -73 -33 -94 -44 -68 -35 -100 -22 -132 54 -10 24 -15 69 -15 135 l0 100 38 28 c79 60 133 111 159 149 14 22 49 66 76 97 54 63 77 128 77 225 l0 52 -62 37 c-120 71 -232 54 -313 -48 -111 -141 -145 -205 -145 -273 0 -27 -7 -75 -15 -105 -8 -30 -15 -86 -15 -125 0 -38 -6 -90 -14 -115 -8 -25 -39 -127 -69 -226 -54 -177 -79 -231 -131 -286 -22 -23 -31 -25 -68 -21 -24 3 -46 8 -50 12 -11 11 -55 163 -76 266 -14 66 -22 156 -26 264 l-5 163 54 114 c30 65 79 197 111 302 32 103 64 197 72 209 8 13 18 37 22 55 9 38 27 89 46 135 7 18 16 56 19 85 4 29 13 71 20 93 50 144 62 370 26 486 -29 91 -43 102 -144 107 -74 3 -85 1 -117 -21z m171 -118 c20 -73 21 -76 4 -202 -28 -215 -60 -345 -154 -624 -112 -332 -124 -363 -135 -363 -5 0 -6 30 -3 68 4 37 11 141 17 232 19 296 52 536 94 669 65 205 124 327 148 303 5 -5 18 -42 29 -83z m600 -1093 c-8 -66 -15 -86 -47 -134 -45 -66 -152 -182 -168 -182 -7 0 -12 32 -13 87 -2 85 -1 90 38 163 41 75 107 165 116 157 2 -3 16 -1 31 3 45 13 53 -4 43 -94z m-1517 -151 c13 -13 14 -33 10 -113 -7 -112 -17 -152 -44 -177 -11 -10 -20 -23 -20 -30 0 -22 -85 -133 -142 -184 -53 -49 -57 -51 -67 -32 -16 29 -13 76 8 166 42 175 98 297 160 352 40 35 71 41 95 18z m5175 8 l24 -6 -7 -121 c-6 -113 -8 -123 -36 -163 -17 -22 -30 -45 -30 -50 0 -36 -170 -219 -195 -209 -39 15 -1 223 71 392 26 60 48 95 80 124 45 41 53 44 93 33z" fill="#e61717"/>
<path d="M1223 3327 c-24 -28 -56 -77 -73 -109 -52 -96 -134 -341 -223 -658 -182 -650 -218 -800 -237 -995 -15 -154 -20 -183 -30 -165 -20 38 -95 474 -130 760 -11 91 -27 221 -35 290 -30 243 -118 646 -153 700 -56 87 -194 171 -285 172 -67 1 -68 -17 -3 -127 30 -50 87 -337 141 -715 9 -58 33 -195 55 -305 21 -110 50 -263 65 -340 28 -149 65 -291 121 -472 37 -119 69 -163 119 -163 40 0 122 49 164 98 54 62 71 116 71 221 0 47 7 131 16 186 8 55 21 143 29 196 44 299 216 895 380 1314 26 66 51 130 56 143 14 36 -3 25 -48 -31z m-764 -1401 c14 -66 51 -331 50 -354 -1 -29 -39 69 -60 153 -10 44 -22 115 -25 158 -4 42 -10 77 -14 77 -13 0 -18 39 -6 43 21 8 45 -25 55 -77z" fill="#e61717"/>
<path d="M4936 2913 c-29 -98 -46 -175 -46 -211 0 -43 1 -43 55 -68 72 -33 89 -24 105 53 28 134 30 202 7 231 -5 7 -32 12 -63 12 -41 0 -54 -4 -58 -17z" fill="#e61717"/>
<path d="M4620 466 c-3 -2 -194 -6 -425 -7 -231 -1 -424 -4 -429 -7 -4 -2 -45 -6 -90 -8 -150 -6 -484 -28 -581 -39 -22 -2 -69 -6 -105 -9 -184 -15 -444 -46 -640 -76 -36 -6 -100 -15 -142 -20 -42 -6 -118 -20 -170 -31 -86 -18 -299 -60 -492 -95 -43 -8 -95 -18 -115 -23 -85 -22 -136 -36 -141 -36 -3 -1 -57 -18 -120 -39 -124 -42 -175 -64 -166 -73 3 -3 11 -1 18 5 23 18 269 94 306 94 20 0 47 4 61 10 44 16 282 50 363 52 43 0 78 4 78 8 0 4 12 7 28 6 15 0 52 5 82 11 30 7 80 14 110 17 30 3 81 9 113 15 31 5 61 8 66 5 4 -3 23 -1 42 4 38 10 123 18 273 24 66 3 102 9 108 18 5 9 11 10 16 3 4 -6 39 -10 82 -8 104 4 142 3 162 -3 9 -3 19 0 23 6 3 5 -2 10 -12 11 -10 0 -13 3 -6 5 6 3 22 -1 35 -9 13 -8 33 -18 45 -22 18 -5 22 -3 17 9 -4 12 0 16 16 16 11 0 19 -4 15 -9 -6 -11 77 -10 85 1 3 4 19 4 35 0 15 -5 51 -5 79 -1 36 4 59 2 80 -8 34 -17 81 -9 72 12 -3 9 0 15 8 15 8 0 16 -5 18 -12 3 -7 9 -8 19 -3 20 13 38 15 45 4 7 -12 71 -11 79 1 4 6 12 4 21 -5 17 -17 60 -20 69 -5 4 7 13 7 26 0 11 -6 23 -8 28 -5 5 3 21 0 35 -7 19 -8 32 -8 49 -1 27 13 95 14 103 2 7 -13 48 -11 61 2 7 7 17 8 25 3 7 -5 27 -9 43 -10 17 0 41 -4 54 -8 16 -6 21 -5 17 3 -10 16 20 14 53 -3 15 -8 46 -15 68 -14 22 0 49 -4 59 -9 10 -5 33 -6 49 -2 17 3 22 7 13 8 -10 0 -18 5 -18 10 0 11 51 2 68 -12 8 -6 32 -12 55 -15 22 -2 49 -8 58 -13 11 -6 20 -5 24 1 10 16 23 12 30 -10 4 -13 15 -20 30 -20 27 0 42 16 23 23 -7 3 -1 6 14 6 20 1 26 -3 22 -14 -7 -17 21 -21 31 -5 6 10 52 -14 68 -35 5 -7 10 -6 15 2 8 13 62 13 62 -1 0 -4 16 -6 35 -4 23 3 36 -1 40 -10 3 -9 13 -12 29 -8 15 4 26 1 29 -7 2 -8 47 10 138 56 170 86 255 107 474 122 230 15 289 15 419 0 77 -8 141 -14 143 -12 8 9 -262 77 -367 92 -63 9 -138 21 -166 26 -51 10 -118 16 -239 24 -33 2 -82 6 -110 9 -45 4 -212 13 -380 21 -33 1 -100 6 -150 9 -49 4 -92 5 -95 2z" fill="#e61717"/>
</g>
</svg>